# MagicaVoxel @ Ephtracy

# group
o 

# material
mtllib Location1.mtl
usemtl palette

# normals
vn -1 0 0
vn 1 0 0
vn 0 0 1
vn 0 0 -1
vn 0 -1 0
vn 0 1 0

# texcoords
vt 0.587891 0.5
vt 0.669922 0.5
vt 0.958984 0.5
vt 0.962891 0.5
vt 0.978516 0.5
vt 0.982422 0.5
vt 0.986328 0.5
vt 0.990234 0.5

# verts
v -3 0 3
v -3 0 1.8
v -3 0 1.7
v -3 0 -0.4
v -3 0 -0.5
v -3 0 -2.7
v -3 0 -2.8
v -3 0 -3
v -3 0.1 3
v -3 0.1 2
v -3 0.1 1.8
v -3 0.1 1.7
v -3 0.1 -0.4
v -3 0.1 -0.5
v -3 0.1 -2.7
v -3 0.1 -2.8
v -3 0.2 3
v -3 0.2 2.9
v -3 0.2 2.8
v -3 0.2 2
v -3 0.2 1.8
v -3 0.2 -2.8
v -3 0.2 -3
v -3 4 3
v -3 4 2.9
v -3 4 2.8
v -2.2 1.9 2.9
v -2.2 1.9 2.8
v -2.2 2 2.9
v -2.2 2 2.8
v -2.2 3.2 2.9
v -2.2 3.2 2.8
v -2.2 3.3 2.9
v -2.2 3.3 2.8
v -0.0999999 0.6 2.9
v -0.0999999 0.6 2.8
v -0.0999999 4 2.9
v -0.0999999 4 2.8
v 0.9 1.9 2.9
v 0.9 1.9 2.8
v 0.9 2 2.9
v 0.9 2 2.8
v 0.9 3.2 2.9
v 0.9 3.2 2.8
v 0.9 3.3 2.9
v 0.9 3.3 2.8
v 2.9 0.6 2.9
v 2.9 0.6 2.8
v 2.9 4 2.9
v 2.9 4 2.8
v -2.9 0.6 2.9
v -2.9 0.6 2.8
v -2.9 4 2.9
v -2.9 4 2.8
v -0.9 1.9 2.9
v -0.9 1.9 2.8
v -0.9 2 2.9
v -0.9 2 2.8
v -0.9 3.2 2.9
v -0.9 3.2 2.8
v -0.9 3.3 2.9
v -0.9 3.3 2.8
v 0.1 0.6 2.9
v 0.1 0.6 2.8
v 0.1 4 2.9
v 0.1 4 2.8
v 2.2 1.9 2.9
v 2.2 1.9 2.8
v 2.2 2 2.9
v 2.2 2 2.8
v 2.2 3.2 2.9
v 2.2 3.2 2.8
v 2.2 3.3 2.9
v 2.2 3.3 2.8
v 3 0 3
v 3 0 1.8
v 3 0 1.7
v 3 0 -0.4
v 3 0 -0.5
v 3 0 -2.7
v 3 0 -2.8
v 3 0 -3
v 3 0.1 3
v 3 0.1 2
v 3 0.1 1.8
v 3 0.1 1.7
v 3 0.1 -0.4
v 3 0.1 -0.5
v 3 0.1 -2.7
v 3 0.1 -2.8
v 3 0.2 3
v 3 0.2 2.9
v 3 0.2 2.8
v 3 0.2 2
v 3 0.2 1.8
v 3 0.2 -2.8
v 3 0.2 -3
v 3 4 3
v 3 4 2.9
v 3 4 2.8
v -3 0 3
v -3 0.1 3
v -3 0.2 3
v -3 4 3
v -2.1 2 3
v -2.1 3.2 3
v -2 2.1 3
v -2 3.1 3
v -1.9 2.9 3
v -1.9 3 3
v -1.8 2.9 3
v -1.8 3 3
v -1.4 2.2 3
v -1.4 2.3 3
v -1.3 2.2 3
v -1.3 2.3 3
v -1.3 2.4 3
v -1.2 2.3 3
v -1.2 2.4 3
v -1.1 2.1 3
v -1.1 3.1 3
v -1 2 3
v -1 3.2 3
v 1 2 3
v 1 3.2 3
v 1.1 2.1 3
v 1.1 3.1 3
v 1.2 2.9 3
v 1.2 3 3
v 1.3 2.9 3
v 1.3 3 3
v 1.7 2.2 3
v 1.7 2.3 3
v 1.8 2.2 3
v 1.8 2.3 3
v 1.8 2.4 3
v 1.9 2.3 3
v 1.9 2.4 3
v 2 2.1 3
v 2 3.1 3
v 2.1 2 3
v 2.1 3.2 3
v 3 0 3
v 3 0.1 3
v 3 0.2 3
v 3 4 3
v -3 0.1 -2.8
v -3 0.2 -2.8
v 3 0.1 -2.8
v 3 0.2 -2.8
v -2.9 0.6 2.9
v -2.9 4 2.9
v -2.2 1.9 2.9
v -2.2 2 2.9
v -2.2 3.2 2.9
v -2.2 3.3 2.9
v -2.1 2 2.9
v -2.1 3.2 2.9
v -2 2.1 2.9
v -2 3.1 2.9
v -1.9 2.9 2.9
v -1.9 3 2.9
v -1.8 2.9 2.9
v -1.8 3 2.9
v -1.4 2.2 2.9
v -1.4 2.3 2.9
v -1.3 2.2 2.9
v -1.3 2.3 2.9
v -1.3 2.4 2.9
v -1.2 2.3 2.9
v -1.2 2.4 2.9
v -1.1 2.1 2.9
v -1.1 3.1 2.9
v -1 2 2.9
v -1 3.2 2.9
v -0.9 1.9 2.9
v -0.9 2 2.9
v -0.9 3.2 2.9
v -0.9 3.3 2.9
v -0.0999999 0.6 2.9
v -0.0999999 4 2.9
v 0.1 0.6 2.9
v 0.1 4 2.9
v 0.9 1.9 2.9
v 0.9 2 2.9
v 0.9 3.2 2.9
v 0.9 3.3 2.9
v 1 2 2.9
v 1 3.2 2.9
v 1.1 2.1 2.9
v 1.1 3.1 2.9
v 1.2 2.9 2.9
v 1.2 3 2.9
v 1.3 2.9 2.9
v 1.3 3 2.9
v 1.7 2.2 2.9
v 1.7 2.3 2.9
v 1.8 2.2 2.9
v 1.8 2.3 2.9
v 1.8 2.4 2.9
v 1.9 2.3 2.9
v 1.9 2.4 2.9
v 2 2.1 2.9
v 2 3.1 2.9
v 2.1 2 2.9
v 2.1 3.2 2.9
v 2.2 1.9 2.9
v 2.2 2 2.9
v 2.2 3.2 2.9
v 2.2 3.3 2.9
v 2.9 0.6 2.9
v 2.9 4 2.9
v -3 0.2 2.8
v -3 4 2.8
v -2.9 0.6 2.8
v -2.9 4 2.8
v -2.2 1.9 2.8
v -2.2 2 2.8
v -2.2 3.2 2.8
v -2.2 3.3 2.8
v -0.9 1.9 2.8
v -0.9 2 2.8
v -0.9 3.2 2.8
v -0.9 3.3 2.8
v -0.0999999 0.6 2.8
v -0.0999999 4 2.8
v 0.1 0.6 2.8
v 0.1 4 2.8
v 0.9 1.9 2.8
v 0.9 2 2.8
v 0.9 3.2 2.8
v 0.9 3.3 2.8
v 2.2 1.9 2.8
v 2.2 2 2.8
v 2.2 3.2 2.8
v 2.2 3.3 2.8
v 2.9 0.6 2.8
v 2.9 4 2.8
v 3 0.2 2.8
v 3 4 2.8
v -3 0.1 1.8
v -3 0.2 1.8
v 3 0.1 1.8
v 3 0.2 1.8
v -3 0 -3
v -3 0.2 -3
v 3 0 -3
v 3 0.2 -3
v -3 0 3
v 3 0 3
v -3 0 1.8
v 3 0 1.8
v -3 0 1.7
v 3 0 1.7
v -3 0 -0.4
v -2.7 0 -0.4
v -2.3 0 -0.4
v -1.7 0 -0.4
v -1.3 0 -0.4
v -0.7 0 -0.4
v -0.3 0 -0.4
v 0.3 0 -0.4
v 0.7 0 -0.4
v 1.3 0 -0.4
v 1.7 0 -0.4
v 2.3 0 -0.4
v 2.7 0 -0.4
v 3 0 -0.4
v -3 0 -0.5
v -2.7 0 -0.5
v -2.3 0 -0.5
v -1.7 0 -0.5
v -1.3 0 -0.5
v -0.7 0 -0.5
v -0.3 0 -0.5
v 0.3 0 -0.5
v 0.7 0 -0.5
v 1.3 0 -0.5
v 1.7 0 -0.5
v 2.3 0 -0.5
v 2.7 0 -0.5
v 3 0 -0.5
v -3 0 -2.7
v 3 0 -2.7
v -3 0 -2.8
v 3 0 -2.8
v -3 0 -3
v 3 0 -3
v -2.2 1.9 2.9
v -0.9 1.9 2.9
v 0.9 1.9 2.9
v 2.2 1.9 2.9
v -2.2 1.9 2.8
v -0.9 1.9 2.8
v 0.9 1.9 2.8
v 2.2 1.9 2.8
v -2.2 3.2 2.9
v -2.1 3.2 2.9
v -1 3.2 2.9
v -0.9 3.2 2.9
v 0.9 3.2 2.9
v 1 3.2 2.9
v 2.1 3.2 2.9
v 2.2 3.2 2.9
v -2.2 3.2 2.8
v -0.9 3.2 2.8
v 0.9 3.2 2.8
v 2.2 3.2 2.8
v -3 0.1 1.8
v 3 0.1 1.8
v -3 0.1 1.7
v 3 0.1 1.7
v -3 0.1 -0.4
v -2.7 0.1 -0.4
v -2.3 0.1 -0.4
v -1.7 0.1 -0.4
v -1.3 0.1 -0.4
v -0.7 0.1 -0.4
v -0.3 0.1 -0.4
v 0.3 0.1 -0.4
v 0.7 0.1 -0.4
v 1.3 0.1 -0.4
v 1.7 0.1 -0.4
v 2.3 0.1 -0.4
v 2.7 0.1 -0.4
v 3 0.1 -0.4
v -3 0.1 -0.5
v -2.7 0.1 -0.5
v -2.3 0.1 -0.5
v -1.7 0.1 -0.5
v -1.3 0.1 -0.5
v -0.7 0.1 -0.5
v -0.3 0.1 -0.5
v 0.3 0.1 -0.5
v 0.7 0.1 -0.5
v 1.3 0.1 -0.5
v 1.7 0.1 -0.5
v 2.3 0.1 -0.5
v 2.7 0.1 -0.5
v 3 0.1 -0.5
v -3 0.1 -2.7
v 3 0.1 -2.7
v -3 0.1 -2.8
v 3 0.1 -2.8
v -3 0.2 2.8
v 3 0.2 2.8
v -3 0.2 2
v 3 0.2 2
v -3 0.2 1.8
v 3 0.2 1.8
v -3 0.2 -2.8
v 3 0.2 -2.8
v -3 0.2 -3
v 3 0.2 -3
v -2.9 0.6 2.9
v -0.0999999 0.6 2.9
v 0.1 0.6 2.9
v 2.9 0.6 2.9
v -2.9 0.6 2.8
v -0.0999999 0.6 2.8
v 0.1 0.6 2.8
v 2.9 0.6 2.8
v -2.2 2 2.9
v -2.1 2 2.9
v -1 2 2.9
v -0.9 2 2.9
v 0.9 2 2.9
v 1 2 2.9
v 2.1 2 2.9
v 2.2 2 2.9
v -2.2 2 2.8
v -0.9 2 2.8
v 0.9 2 2.8
v 2.2 2 2.8
v -2.2 3.3 2.9
v -0.9 3.3 2.9
v 0.9 3.3 2.9
v 2.2 3.3 2.9
v -2.2 3.3 2.8
v -0.9 3.3 2.8
v 0.9 3.3 2.8
v 2.2 3.3 2.8
v -3 4 3
v 3 4 3
v -3 4 2.9
v -2.9 4 2.9
v -0.0999999 4 2.9
v 0.1 4 2.9
v 2.9 4 2.9
v 3 4 2.9
v -3 4 2.8
v -2.9 4 2.8
v -0.0999999 4 2.8
v 0.1 4 2.8
v 2.9 4 2.8
v 3 4 2.8

# faces
f 9/7/1 2/7/1 1/7/1
f 10/7/1 2/7/1 9/7/1
f 11/8/1 3/8/1 2/8/1
f 11/7/1 2/7/1 10/7/1
f 12/7/1 4/7/1 3/7/1
f 12/8/1 3/8/1 11/8/1
f 13/4/1 5/4/1 4/4/1
f 13/7/1 4/7/1 12/7/1
f 14/7/1 6/7/1 5/7/1
f 14/4/1 5/4/1 13/4/1
f 15/8/1 7/8/1 6/8/1
f 15/7/1 6/7/1 14/7/1
f 16/6/1 8/6/1 7/6/1
f 16/8/1 7/8/1 15/8/1
f 17/5/1 10/5/1 9/5/1
f 18/5/1 10/5/1 17/5/1
f 19/5/1 10/5/1 18/5/1
f 20/6/1 11/6/1 10/6/1
f 20/5/1 10/5/1 19/5/1
f 21/6/1 11/6/1 20/6/1
f 22/6/1 8/6/1 16/6/1
f 23/6/1 8/6/1 22/6/1
f 24/2/1 18/2/1 17/2/1
f 25/3/1 19/3/1 18/3/1
f 25/2/1 18/2/1 24/2/1
f 26/3/1 19/3/1 25/3/1
f 29/3/1 28/3/1 27/3/1
f 30/3/1 28/3/1 29/3/1
f 33/3/1 32/3/1 31/3/1
f 34/3/1 32/3/1 33/3/1
f 37/3/1 36/3/1 35/3/1
f 38/3/1 36/3/1 37/3/1
f 41/3/1 40/3/1 39/3/1
f 42/3/1 40/3/1 41/3/1
f 45/3/1 44/3/1 43/3/1
f 46/3/1 44/3/1 45/3/1
f 49/3/1 48/3/1 47/3/1
f 50/3/1 48/3/1 49/3/1
f 51/3/2 52/3/2 53/3/2
f 53/3/2 52/3/2 54/3/2
f 55/3/2 56/3/2 57/3/2
f 57/3/2 56/3/2 58/3/2
f 59/3/2 60/3/2 61/3/2
f 61/3/2 60/3/2 62/3/2
f 63/3/2 64/3/2 65/3/2
f 65/3/2 64/3/2 66/3/2
f 67/3/2 68/3/2 69/3/2
f 69/3/2 68/3/2 70/3/2
f 71/3/2 72/3/2 73/3/2
f 73/3/2 72/3/2 74/3/2
f 75/7/2 76/7/2 83/7/2
f 83/7/2 76/7/2 84/7/2
f 76/8/2 77/8/2 85/8/2
f 84/7/2 76/7/2 85/7/2
f 77/7/2 78/7/2 86/7/2
f 85/8/2 77/8/2 86/8/2
f 78/4/2 79/4/2 87/4/2
f 86/7/2 78/7/2 87/7/2
f 79/7/2 80/7/2 88/7/2
f 87/4/2 79/4/2 88/4/2
f 80/8/2 81/8/2 89/8/2
f 88/7/2 80/7/2 89/7/2
f 81/6/2 82/6/2 90/6/2
f 89/8/2 81/8/2 90/8/2
f 83/5/2 84/5/2 91/5/2
f 91/5/2 84/5/2 92/5/2
f 92/5/2 84/5/2 93/5/2
f 84/6/2 85/6/2 94/6/2
f 93/5/2 84/5/2 94/5/2
f 94/6/2 85/6/2 95/6/2
f 90/6/2 82/6/2 96/6/2
f 96/6/2 82/6/2 97/6/2
f 91/2/2 92/2/2 98/2/2
f 92/3/2 93/3/2 99/3/2
f 98/2/2 92/2/2 99/2/2
f 99/3/2 93/3/2 100/3/2
f 105/2/3 104/2/3 103/2/3
f 106/2/3 104/2/3 105/2/3
f 107/3/3 106/3/3 105/3/3
f 108/3/3 106/3/3 107/3/3
f 109/1/3 108/1/3 107/1/3
f 110/1/3 108/1/3 109/1/3
f 111/1/3 109/1/3 107/1/3
f 111/3/3 110/3/3 109/3/3
f 112/1/3 108/1/3 110/1/3
f 112/3/3 110/3/3 111/3/3
f 113/1/3 111/1/3 107/1/3
f 113/1/3 112/1/3 111/1/3
f 114/1/3 112/1/3 113/1/3
f 115/1/3 113/1/3 107/1/3
f 115/3/3 114/3/3 113/3/3
f 116/1/3 112/1/3 114/1/3
f 116/3/3 114/3/3 115/3/3
f 117/1/3 112/1/3 116/1/3
f 118/1/3 116/1/3 115/1/3
f 118/3/3 117/3/3 116/3/3
f 119/1/3 112/1/3 117/1/3
f 119/3/3 117/3/3 118/3/3
f 120/3/3 107/3/3 105/3/3
f 120/1/3 115/1/3 107/1/3
f 120/1/3 119/1/3 118/1/3
f 120/1/3 118/1/3 115/1/3
f 121/1/3 112/1/3 119/1/3
f 121/1/3 119/1/3 120/1/3
f 121/3/3 106/3/3 108/3/3
f 121/1/3 108/1/3 112/1/3
f 122/2/3 105/2/3 103/2/3
f 122/3/3 120/3/3 105/3/3
f 122/3/3 121/3/3 120/3/3
f 123/3/3 106/3/3 121/3/3
f 123/3/3 121/3/3 122/3/3
f 123/2/3 104/2/3 106/2/3
f 124/2/3 122/2/3 103/2/3
f 124/2/3 123/2/3 122/2/3
f 125/2/3 104/2/3 123/2/3
f 125/2/3 123/2/3 124/2/3
f 126/3/3 125/3/3 124/3/3
f 127/3/3 125/3/3 126/3/3
f 128/1/3 127/1/3 126/1/3
f 129/1/3 127/1/3 128/1/3
f 130/1/3 128/1/3 126/1/3
f 130/3/3 129/3/3 128/3/3
f 131/1/3 127/1/3 129/1/3
f 131/3/3 129/3/3 130/3/3
f 132/1/3 130/1/3 126/1/3
f 132/1/3 131/1/3 130/1/3
f 133/1/3 131/1/3 132/1/3
f 134/1/3 132/1/3 126/1/3
f 134/3/3 133/3/3 132/3/3
f 135/1/3 131/1/3 133/1/3
f 135/3/3 133/3/3 134/3/3
f 136/1/3 131/1/3 135/1/3
f 137/1/3 135/1/3 134/1/3
f 137/3/3 136/3/3 135/3/3
f 138/1/3 131/1/3 136/1/3
f 138/3/3 136/3/3 137/3/3
f 139/3/3 126/3/3 124/3/3
f 139/1/3 134/1/3 126/1/3
f 139/1/3 138/1/3 137/1/3
f 139/1/3 137/1/3 134/1/3
f 140/1/3 131/1/3 138/1/3
f 140/1/3 138/1/3 139/1/3
f 140/3/3 125/3/3 127/3/3
f 140/1/3 127/1/3 131/1/3
f 141/2/3 124/2/3 103/2/3
f 141/3/3 139/3/3 124/3/3
f 141/3/3 140/3/3 139/3/3
f 142/3/3 125/3/3 140/3/3
f 142/3/3 140/3/3 141/3/3
f 142/2/3 104/2/3 125/2/3
f 143/7/3 102/7/3 101/7/3
f 144/5/3 103/5/3 102/5/3
f 144/7/3 102/7/3 143/7/3
f 145/2/3 141/2/3 103/2/3
f 145/5/3 103/5/3 144/5/3
f 145/2/3 142/2/3 141/2/3
f 146/2/3 104/2/3 142/2/3
f 146/2/3 142/2/3 145/2/3
f 149/6/3 148/6/3 147/6/3
f 150/6/3 148/6/3 149/6/3
f 151/2/4 152/2/4 153/2/4
f 153/2/4 152/2/4 154/2/4
f 154/2/4 152/2/4 155/2/4
f 155/2/4 152/2/4 156/2/4
f 154/2/4 155/2/4 157/2/4
f 157/2/4 155/2/4 158/2/4
f 157/3/4 158/3/4 159/3/4
f 159/3/4 158/3/4 160/3/4
f 159/1/4 160/1/4 161/1/4
f 161/1/4 160/1/4 162/1/4
f 159/1/4 161/1/4 163/1/4
f 161/3/4 162/3/4 163/3/4
f 162/1/4 160/1/4 164/1/4
f 163/3/4 162/3/4 164/3/4
f 159/1/4 163/1/4 165/1/4
f 163/1/4 164/1/4 165/1/4
f 165/1/4 164/1/4 166/1/4
f 159/1/4 165/1/4 167/1/4
f 165/3/4 166/3/4 167/3/4
f 166/1/4 164/1/4 168/1/4
f 167/3/4 166/3/4 168/3/4
f 168/1/4 164/1/4 169/1/4
f 167/1/4 168/1/4 170/1/4
f 168/3/4 169/3/4 170/3/4
f 169/1/4 164/1/4 171/1/4
f 170/3/4 169/3/4 171/3/4
f 157/3/4 159/3/4 172/3/4
f 159/1/4 167/1/4 172/1/4
f 170/1/4 171/1/4 172/1/4
f 167/1/4 170/1/4 172/1/4
f 171/1/4 164/1/4 173/1/4
f 172/1/4 171/1/4 173/1/4
f 160/3/4 158/3/4 173/3/4
f 164/1/4 160/1/4 173/1/4
f 157/3/4 172/3/4 174/3/4
f 172/3/4 173/3/4 174/3/4
f 173/3/4 158/3/4 175/3/4
f 174/3/4 173/3/4 175/3/4
f 151/2/4 153/2/4 176/2/4
f 174/2/4 175/2/4 177/2/4
f 177/2/4 175/2/4 178/2/4
f 156/2/4 152/2/4 179/2/4
f 177/2/4 178/2/4 180/2/4
f 178/2/4 179/2/4 180/2/4
f 176/2/4 177/2/4 180/2/4
f 151/2/4 176/2/4 180/2/4
f 179/2/4 152/2/4 181/2/4
f 180/2/4 179/2/4 181/2/4
f 182/2/4 183/2/4 184/2/4
f 184/2/4 183/2/4 185/2/4
f 185/2/4 183/2/4 186/2/4
f 186/2/4 183/2/4 187/2/4
f 185/2/4 186/2/4 188/2/4
f 188/2/4 186/2/4 189/2/4
f 188/3/4 189/3/4 190/3/4
f 190/3/4 189/3/4 191/3/4
f 190/1/4 191/1/4 192/1/4
f 192/1/4 191/1/4 193/1/4
f 190/1/4 192/1/4 194/1/4
f 192/3/4 193/3/4 194/3/4
f 193/1/4 191/1/4 195/1/4
f 194/3/4 193/3/4 195/3/4
f 190/1/4 194/1/4 196/1/4
f 194/1/4 195/1/4 196/1/4
f 196/1/4 195/1/4 197/1/4
f 190/1/4 196/1/4 198/1/4
f 196/3/4 197/3/4 198/3/4
f 197/1/4 195/1/4 199/1/4
f 198/3/4 197/3/4 199/3/4
f 199/1/4 195/1/4 200/1/4
f 198/1/4 199/1/4 201/1/4
f 199/3/4 200/3/4 201/3/4
f 200/1/4 195/1/4 202/1/4
f 201/3/4 200/3/4 202/3/4
f 188/3/4 190/3/4 203/3/4
f 190/1/4 198/1/4 203/1/4
f 201/1/4 202/1/4 203/1/4
f 198/1/4 201/1/4 203/1/4
f 202/1/4 195/1/4 204/1/4
f 203/1/4 202/1/4 204/1/4
f 191/3/4 189/3/4 204/3/4
f 195/1/4 191/1/4 204/1/4
f 188/3/4 203/3/4 205/3/4
f 203/3/4 204/3/4 205/3/4
f 204/3/4 189/3/4 206/3/4
f 205/3/4 204/3/4 206/3/4
f 182/2/4 184/2/4 207/2/4
f 205/2/4 206/2/4 208/2/4
f 208/2/4 206/2/4 209/2/4
f 187/2/4 183/2/4 210/2/4
f 208/2/4 209/2/4 211/2/4
f 209/2/4 210/2/4 211/2/4
f 207/2/4 208/2/4 211/2/4
f 182/2/4 207/2/4 211/2/4
f 210/2/4 183/2/4 212/2/4
f 211/2/4 210/2/4 212/2/4
f 213/3/4 214/3/4 215/3/4
f 215/3/4 214/3/4 216/3/4
f 217/3/4 218/3/4 221/3/4
f 221/3/4 218/3/4 222/3/4
f 219/3/4 220/3/4 223/3/4
f 223/3/4 220/3/4 224/3/4
f 213/3/4 215/3/4 225/3/4
f 213/3/4 225/3/4 227/3/4
f 225/3/4 226/3/4 227/3/4
f 227/3/4 226/3/4 228/3/4
f 229/3/4 230/3/4 233/3/4
f 233/3/4 230/3/4 234/3/4
f 231/3/4 232/3/4 235/3/4
f 235/3/4 232/3/4 236/3/4
f 213/3/4 227/3/4 237/3/4
f 213/3/4 237/3/4 239/3/4
f 237/3/4 238/3/4 239/3/4
f 239/3/4 238/3/4 240/3/4
f 241/6/4 242/6/4 243/6/4
f 243/6/4 242/6/4 244/6/4
f 245/6/4 246/6/4 247/6/4
f 247/6/4 246/6/4 248/6/4
f 251/7/5 250/7/5 249/7/5
f 252/7/5 250/7/5 251/7/5
f 253/8/5 252/8/5 251/8/5
f 254/8/5 252/8/5 253/8/5
f 255/7/5 254/7/5 253/7/5
f 256/7/5 254/7/5 255/7/5
f 257/7/5 254/7/5 256/7/5
f 258/7/5 254/7/5 257/7/5
f 259/7/5 254/7/5 258/7/5
f 260/7/5 254/7/5 259/7/5
f 261/7/5 254/7/5 260/7/5
f 262/7/5 254/7/5 261/7/5
f 263/7/5 254/7/5 262/7/5
f 264/7/5 254/7/5 263/7/5
f 265/7/5 254/7/5 264/7/5
f 266/7/5 254/7/5 265/7/5
f 267/7/5 254/7/5 266/7/5
f 268/7/5 254/7/5 267/7/5
f 269/4/5 256/4/5 255/4/5
f 270/7/5 257/7/5 256/7/5
f 270/4/5 256/4/5 269/4/5
f 271/4/5 258/4/5 257/4/5
f 271/7/5 257/7/5 270/7/5
f 272/7/5 259/7/5 258/7/5
f 272/4/5 258/4/5 271/4/5
f 273/4/5 260/4/5 259/4/5
f 273/7/5 259/7/5 272/7/5
f 274/7/5 261/7/5 260/7/5
f 274/4/5 260/4/5 273/4/5
f 275/4/5 262/4/5 261/4/5
f 275/7/5 261/7/5 274/7/5
f 276/7/5 263/7/5 262/7/5
f 276/4/5 262/4/5 275/4/5
f 277/4/5 264/4/5 263/4/5
f 277/7/5 263/7/5 276/7/5
f 278/7/5 265/7/5 264/7/5
f 278/4/5 264/4/5 277/4/5
f 279/4/5 266/4/5 265/4/5
f 279/7/5 265/7/5 278/7/5
f 280/7/5 267/7/5 266/7/5
f 280/4/5 266/4/5 279/4/5
f 281/4/5 268/4/5 267/4/5
f 281/7/5 267/7/5 280/7/5
f 282/4/5 268/4/5 281/4/5
f 283/7/5 270/7/5 269/7/5
f 283/7/5 271/7/5 270/7/5
f 283/7/5 282/7/5 281/7/5
f 283/7/5 281/7/5 280/7/5
f 283/7/5 280/7/5 279/7/5
f 283/7/5 279/7/5 278/7/5
f 283/7/5 278/7/5 277/7/5
f 283/7/5 277/7/5 276/7/5
f 283/7/5 276/7/5 275/7/5
f 283/7/5 275/7/5 274/7/5
f 283/7/5 274/7/5 273/7/5
f 283/7/5 273/7/5 272/7/5
f 283/7/5 272/7/5 271/7/5
f 284/7/5 282/7/5 283/7/5
f 285/8/5 284/8/5 283/8/5
f 286/8/5 284/8/5 285/8/5
f 287/6/5 286/6/5 285/6/5
f 288/6/5 286/6/5 287/6/5
f 293/3/5 290/3/5 289/3/5
f 294/3/5 290/3/5 293/3/5
f 295/3/5 292/3/5 291/3/5
f 296/3/5 292/3/5 295/3/5
f 305/3/5 298/3/5 297/3/5
f 305/3/5 299/3/5 298/3/5
f 305/3/5 300/3/5 299/3/5
f 306/3/5 300/3/5 305/3/5
f 307/3/5 304/3/5 303/3/5
f 307/3/5 303/3/5 302/3/5
f 307/3/5 302/3/5 301/3/5
f 308/3/5 304/3/5 307/3/5
f 309/8/6 310/8/6 311/8/6
f 311/8/6 310/8/6 312/8/6
f 311/7/6 312/7/6 313/7/6
f 313/7/6 312/7/6 314/7/6
f 314/7/6 312/7/6 315/7/6
f 315/7/6 312/7/6 316/7/6
f 316/7/6 312/7/6 317/7/6
f 317/7/6 312/7/6 318/7/6
f 318/7/6 312/7/6 319/7/6
f 319/7/6 312/7/6 320/7/6
f 320/7/6 312/7/6 321/7/6
f 321/7/6 312/7/6 322/7/6
f 322/7/6 312/7/6 323/7/6
f 323/7/6 312/7/6 324/7/6
f 324/7/6 312/7/6 325/7/6
f 325/7/6 312/7/6 326/7/6
f 313/4/6 314/4/6 327/4/6
f 314/7/6 315/7/6 328/7/6
f 327/4/6 314/4/6 328/4/6
f 315/4/6 316/4/6 329/4/6
f 328/7/6 315/7/6 329/7/6
f 316/7/6 317/7/6 330/7/6
f 329/4/6 316/4/6 330/4/6
f 317/4/6 318/4/6 331/4/6
f 330/7/6 317/7/6 331/7/6
f 318/7/6 319/7/6 332/7/6
f 331/4/6 318/4/6 332/4/6
f 319/4/6 320/4/6 333/4/6
f 332/7/6 319/7/6 333/7/6
f 320/7/6 321/7/6 334/7/6
f 333/4/6 320/4/6 334/4/6
f 321/4/6 322/4/6 335/4/6
f 334/7/6 321/7/6 335/7/6
f 322/7/6 323/7/6 336/7/6
f 335/4/6 322/4/6 336/4/6
f 323/4/6 324/4/6 337/4/6
f 336/7/6 323/7/6 337/7/6
f 324/7/6 325/7/6 338/7/6
f 337/4/6 324/4/6 338/4/6
f 325/4/6 326/4/6 339/4/6
f 338/7/6 325/7/6 339/7/6
f 339/4/6 326/4/6 340/4/6
f 327/7/6 328/7/6 341/7/6
f 328/7/6 329/7/6 341/7/6
f 339/7/6 340/7/6 341/7/6
f 338/7/6 339/7/6 341/7/6
f 337/7/6 338/7/6 341/7/6
f 336/7/6 337/7/6 341/7/6
f 335/7/6 336/7/6 341/7/6
f 334/7/6 335/7/6 341/7/6
f 333/7/6 334/7/6 341/7/6
f 332/7/6 333/7/6 341/7/6
f 331/7/6 332/7/6 341/7/6
f 330/7/6 331/7/6 341/7/6
f 329/7/6 330/7/6 341/7/6
f 341/7/6 340/7/6 342/7/6
f 341/8/6 342/8/6 343/8/6
f 343/8/6 342/8/6 344/8/6
f 345/5/6 346/5/6 347/5/6
f 347/5/6 346/5/6 348/5/6
f 347/6/6 348/6/6 349/6/6
f 349/6/6 348/6/6 350/6/6
f 351/6/6 352/6/6 353/6/6
f 353/6/6 352/6/6 354/6/6
f 355/3/6 356/3/6 359/3/6
f 359/3/6 356/3/6 360/3/6
f 357/3/6 358/3/6 361/3/6
f 361/3/6 358/3/6 362/3/6
f 363/3/6 364/3/6 371/3/6
f 364/3/6 365/3/6 371/3/6
f 365/3/6 366/3/6 371/3/6
f 371/3/6 366/3/6 372/3/6
f 369/3/6 370/3/6 373/3/6
f 368/3/6 369/3/6 373/3/6
f 367/3/6 368/3/6 373/3/6
f 373/3/6 370/3/6 374/3/6
f 375/3/6 376/3/6 379/3/6
f 379/3/6 376/3/6 380/3/6
f 377/3/6 378/3/6 381/3/6
f 381/3/6 378/3/6 382/3/6
f 383/2/6 384/2/6 385/2/6
f 385/2/6 384/2/6 386/2/6
f 386/2/6 384/2/6 387/2/6
f 387/2/6 384/2/6 388/2/6
f 388/2/6 384/2/6 389/2/6
f 389/2/6 384/2/6 390/2/6
f 385/3/6 386/3/6 391/3/6
f 391/3/6 386/3/6 392/3/6
f 387/3/6 388/3/6 393/3/6
f 393/3/6 388/3/6 394/3/6
f 389/3/6 390/3/6 395/3/6
f 395/3/6 390/3/6 396/3/6
