# MagicaVoxel @ Ephtracy

# group
o 

# material
mtllib Location2.mtl
usemtl palette

# normals
vn -1 0 0
vn 1 0 0
vn 0 0 1
vn 0 0 -1
vn 0 -1 0
vn 0 1 0

# texcoords
vt 0.0214844 0.5
vt 0.669922 0.5
vt 0.958984 0.5
vt 0.962891 0.5
vt 0.978516 0.5
vt 0.982422 0.5
vt 0.986328 0.5
vt 0.990234 0.5
vt 0.994141 0.5

# verts
v -3 0 3
v -3 0 1.8
v -3 0 1.7
v -3 0 -0.4
v -3 0 -0.5
v -3 0 -2.7
v -3 0 -2.8
v -3 0 -3
v -3 0.1 3
v -3 0.1 2
v -3 0.1 1.8
v -3 0.1 1.7
v -3 0.1 -0.4
v -3 0.1 -0.5
v -3 0.1 -2.7
v -3 0.1 -2.8
v -3 0.2 3
v -3 0.2 2.9
v -3 0.2 2.8
v -3 0.2 2
v -3 0.2 1.8
v -3 0.2 -2.8
v -3 0.2 -3
v -3 4 3
v -3 4 2.9
v -3 4 2.8
v -1.6 0.6 2.9
v -1.6 0.6 2.8
v -1.6 2.4 2.9
v -1.6 2.4 2.8
v -0.0999999 2.3 2.4
v -0.0999999 2.3 2.2
v -0.0999999 2.4 2.9
v -0.0999999 2.4 2.8
v -0.0999999 2.4 2.4
v -0.0999999 2.4 2.2
v -0.0999999 2.6 2.4
v -0.0999999 2.6 2.2
v -0.0999999 2.7 2.8
v -0.0999999 2.7 2.4
v -0.0999999 2.9 2.8
v -0.0999999 2.9 2.2
v -0.0999999 4 2.9
v -0.0999999 4 2.8
v 1.5 0.2 2.9
v 1.5 0.2 2.8
v 1.5 0.3 2.9
v 1.5 0.4 2.9
v 1.5 0.5 2.9
v 1.5 2.3 2.9
v 1.5 2.3 2.8
v 2.9 0.6 2.9
v 2.9 0.6 2.8
v 2.9 4 2.9
v 2.9 4 2.8
v -2.9 0.6 2.9
v -2.9 0.6 2.8
v -2.9 4 2.9
v -2.9 4 2.8
v -1.5 0.2 2.9
v -1.5 0.2 2.8
v -1.5 0.3 2.9
v -1.5 0.4 2.9
v -1.5 0.5 2.9
v -1.5 2.3 2.9
v -1.5 2.3 2.8
v 0.1 2.3 2.4
v 0.1 2.3 2.2
v 0.1 2.4 2.9
v 0.1 2.4 2.8
v 0.1 2.4 2.4
v 0.1 2.4 2.2
v 0.1 2.6 2.4
v 0.1 2.6 2.2
v 0.1 2.7 2.8
v 0.1 2.7 2.4
v 0.1 2.9 2.8
v 0.1 2.9 2.2
v 0.1 4 2.9
v 0.1 4 2.8
v 1.6 0.6 2.9
v 1.6 0.6 2.8
v 1.6 2.4 2.9
v 1.6 2.4 2.8
v 3 0 3
v 3 0 1.8
v 3 0 1.7
v 3 0 -0.4
v 3 0 -0.5
v 3 0 -2.7
v 3 0 -2.8
v 3 0 -3
v 3 0.1 3
v 3 0.1 2
v 3 0.1 1.8
v 3 0.1 1.7
v 3 0.1 -0.4
v 3 0.1 -0.5
v 3 0.1 -2.7
v 3 0.1 -2.8
v 3 0.2 3
v 3 0.2 2.9
v 3 0.2 2.8
v 3 0.2 2
v 3 0.2 1.8
v 3 0.2 -2.8
v 3 0.2 -3
v 3 4 3
v 3 4 2.9
v 3 4 2.8
v -3 0 3
v -3 0.1 3
v -3 0.2 3
v -3 4 3
v -1.5 0.2 3
v -1.5 0.3 3
v -1.5 0.4 3
v -1.5 0.5 3
v -1.5 2.3 3
v 1.5 0.2 3
v 1.5 0.3 3
v 1.5 0.4 3
v 1.5 0.5 3
v 1.5 2.3 3
v 3 0 3
v 3 0.1 3
v 3 0.2 3
v 3 4 3
v -0.0999999 2.3 2.4
v -0.0999999 2.4 2.4
v -0.0999999 2.6 2.4
v -0.0999999 2.7 2.4
v 0.1 2.3 2.4
v 0.1 2.4 2.4
v 0.1 2.6 2.4
v 0.1 2.7 2.4
v -3 0.1 -2.8
v -3 0.2 -2.8
v 3 0.1 -2.8
v 3 0.2 -2.8
v -2.9 0.6 2.9
v -2.9 4 2.9
v -1.6 0.6 2.9
v -1.6 2.4 2.9
v -1.5 0.2 2.9
v -1.5 0.3 2.9
v -1.5 0.4 2.9
v -1.5 0.5 2.9
v -1.5 2.3 2.9
v -0.0999999 2.4 2.9
v -0.0999999 4 2.9
v 0.1 2.4 2.9
v 0.1 4 2.9
v 1.5 0.2 2.9
v 1.5 0.3 2.9
v 1.5 0.4 2.9
v 1.5 0.5 2.9
v 1.5 2.3 2.9
v 1.6 0.6 2.9
v 1.6 2.4 2.9
v 2.9 0.6 2.9
v 2.9 4 2.9
v -3 0.2 2.8
v -3 4 2.8
v -2.9 0.6 2.8
v -2.9 4 2.8
v -1.6 0.6 2.8
v -1.6 2.4 2.8
v -1.5 0.2 2.8
v -1.5 2.3 2.8
v -0.0999999 2.4 2.8
v -0.0999999 2.7 2.8
v -0.0999999 2.9 2.8
v -0.0999999 4 2.8
v 0.1 2.4 2.8
v 0.1 2.7 2.8
v 0.1 2.9 2.8
v 0.1 4 2.8
v 1.5 0.2 2.8
v 1.5 2.3 2.8
v 1.6 0.6 2.8
v 1.6 2.4 2.8
v 2.9 0.6 2.8
v 2.9 4 2.8
v 3 0.2 2.8
v 3 4 2.8
v -0.0999999 2.3 2.2
v -0.0999999 2.4 2.2
v -0.0999999 2.6 2.2
v -0.0999999 2.9 2.2
v 0.1 2.3 2.2
v 0.1 2.4 2.2
v 0.1 2.6 2.2
v 0.1 2.9 2.2
v -3 0.1 1.8
v -3 0.2 1.8
v 3 0.1 1.8
v 3 0.2 1.8
v -3 0 -3
v -3 0.2 -3
v 3 0 -3
v 3 0.2 -3
v -3 0 3
v 3 0 3
v -3 0 1.8
v 3 0 1.8
v -3 0 1.7
v 3 0 1.7
v -3 0 -0.4
v -2.7 0 -0.4
v -2.3 0 -0.4
v -1.7 0 -0.4
v -1.3 0 -0.4
v -0.7 0 -0.4
v -0.3 0 -0.4
v 0.3 0 -0.4
v 0.7 0 -0.4
v 1.3 0 -0.4
v 1.7 0 -0.4
v 2.3 0 -0.4
v 2.7 0 -0.4
v 3 0 -0.4
v -3 0 -0.5
v -2.7 0 -0.5
v -2.3 0 -0.5
v -1.7 0 -0.5
v -1.3 0 -0.5
v -0.7 0 -0.5
v -0.3 0 -0.5
v 0.3 0 -0.5
v 0.7 0 -0.5
v 1.3 0 -0.5
v 1.7 0 -0.5
v 2.3 0 -0.5
v 2.7 0 -0.5
v 3 0 -0.5
v -3 0 -2.7
v 3 0 -2.7
v -3 0 -2.8
v 3 0 -2.8
v -3 0 -3
v 3 0 -3
v -1.5 2.3 2.9
v 1.5 2.3 2.9
v -1.5 2.3 2.8
v 1.5 2.3 2.8
v -0.0999999 2.3 2.4
v 0.1 2.3 2.4
v -0.0999999 2.3 2.2
v 0.1 2.3 2.2
v -0.0999999 2.7 2.8
v 0.1 2.7 2.8
v -0.0999999 2.7 2.4
v 0.1 2.7 2.4
v -3 0.1 1.8
v 3 0.1 1.8
v -3 0.1 1.7
v 3 0.1 1.7
v -3 0.1 -0.4
v -2.7 0.1 -0.4
v -2.3 0.1 -0.4
v -1.7 0.1 -0.4
v -1.3 0.1 -0.4
v -0.7 0.1 -0.4
v -0.3 0.1 -0.4
v 0.3 0.1 -0.4
v 0.7 0.1 -0.4
v 1.3 0.1 -0.4
v 1.7 0.1 -0.4
v 2.3 0.1 -0.4
v 2.7 0.1 -0.4
v 3 0.1 -0.4
v -3 0.1 -0.5
v -2.7 0.1 -0.5
v -2.3 0.1 -0.5
v -1.7 0.1 -0.5
v -1.3 0.1 -0.5
v -0.7 0.1 -0.5
v -0.3 0.1 -0.5
v 0.3 0.1 -0.5
v 0.7 0.1 -0.5
v 1.3 0.1 -0.5
v 1.7 0.1 -0.5
v 2.3 0.1 -0.5
v 2.7 0.1 -0.5
v 3 0.1 -0.5
v -3 0.1 -2.7
v 3 0.1 -2.7
v -3 0.1 -2.8
v 3 0.1 -2.8
v -1.5 0.2 2.9
v 1.5 0.2 2.9
v -3 0.2 2.8
v -1.5 0.2 2.8
v 1.5 0.2 2.8
v 3 0.2 2.8
v -3 0.2 2
v 3 0.2 2
v -3 0.2 1.8
v 3 0.2 1.8
v -3 0.2 -2.8
v 3 0.2 -2.8
v -3 0.2 -3
v 3 0.2 -3
v -2.9 0.6 2.9
v -1.6 0.6 2.9
v 1.6 0.6 2.9
v 2.9 0.6 2.9
v -2.9 0.6 2.8
v -1.6 0.6 2.8
v 1.6 0.6 2.8
v 2.9 0.6 2.8
v -1.6 2.4 2.9
v -0.0999999 2.4 2.9
v 0.1 2.4 2.9
v 1.6 2.4 2.9
v -1.6 2.4 2.8
v -0.0999999 2.4 2.8
v 0.1 2.4 2.8
v 1.6 2.4 2.8
v -0.0999999 2.9 2.8
v 0.1 2.9 2.8
v -0.0999999 2.9 2.2
v 0.1 2.9 2.2
v -3 4 3
v 3 4 3
v -3 4 2.9
v -2.9 4 2.9
v -0.0999999 4 2.9
v 0.1 4 2.9
v 2.9 4 2.9
v 3 4 2.9
v -3 4 2.8
v -2.9 4 2.8
v -0.0999999 4 2.8
v 0.1 4 2.8
v 2.9 4 2.8
v 3 4 2.8

# faces
f 9/7/1 2/7/1 1/7/1
f 10/7/1 2/7/1 9/7/1
f 11/8/1 3/8/1 2/8/1
f 11/7/1 2/7/1 10/7/1
f 12/7/1 4/7/1 3/7/1
f 12/8/1 3/8/1 11/8/1
f 13/4/1 5/4/1 4/4/1
f 13/7/1 4/7/1 12/7/1
f 14/7/1 6/7/1 5/7/1
f 14/4/1 5/4/1 13/4/1
f 15/8/1 7/8/1 6/8/1
f 15/7/1 6/7/1 14/7/1
f 16/6/1 8/6/1 7/6/1
f 16/8/1 7/8/1 15/8/1
f 17/5/1 10/5/1 9/5/1
f 18/5/1 10/5/1 17/5/1
f 19/5/1 10/5/1 18/5/1
f 20/6/1 11/6/1 10/6/1
f 20/5/1 10/5/1 19/5/1
f 21/6/1 11/6/1 20/6/1
f 22/6/1 8/6/1 16/6/1
f 23/6/1 8/6/1 22/6/1
f 24/2/1 18/2/1 17/2/1
f 25/3/1 19/3/1 18/3/1
f 25/2/1 18/2/1 24/2/1
f 26/3/1 19/3/1 25/3/1
f 29/3/1 28/3/1 27/3/1
f 30/3/1 28/3/1 29/3/1
f 35/8/1 32/8/1 31/8/1
f 36/8/1 32/8/1 35/8/1
f 37/1/1 36/1/1 35/1/1
f 38/1/1 36/1/1 37/1/1
f 39/3/1 34/3/1 33/3/1
f 40/8/1 38/8/1 37/8/1
f 41/3/1 39/3/1 33/3/1
f 41/8/1 40/8/1 39/8/1
f 42/8/1 38/8/1 40/8/1
f 42/8/1 40/8/1 41/8/1
f 43/3/1 41/3/1 33/3/1
f 44/3/1 41/3/1 43/3/1
f 47/3/1 46/3/1 45/3/1
f 48/3/1 46/3/1 47/3/1
f 49/3/1 46/3/1 48/3/1
f 50/3/1 46/3/1 49/3/1
f 51/3/1 46/3/1 50/3/1
f 54/3/1 53/3/1 52/3/1
f 55/3/1 53/3/1 54/3/1
f 56/3/2 57/3/2 58/3/2
f 58/3/2 57/3/2 59/3/2
f 60/3/2 61/3/2 62/3/2
f 62/3/2 61/3/2 63/3/2
f 63/3/2 61/3/2 64/3/2
f 64/3/2 61/3/2 65/3/2
f 65/3/2 61/3/2 66/3/2
f 67/8/2 68/8/2 71/8/2
f 71/8/2 68/8/2 72/8/2
f 71/1/2 72/1/2 73/1/2
f 73/1/2 72/1/2 74/1/2
f 69/3/2 70/3/2 75/3/2
f 73/8/2 74/8/2 76/8/2
f 69/3/2 75/3/2 77/3/2
f 75/8/2 76/8/2 77/8/2
f 76/8/2 74/8/2 78/8/2
f 77/8/2 76/8/2 78/8/2
f 69/3/2 77/3/2 79/3/2
f 79/3/2 77/3/2 80/3/2
f 81/3/2 82/3/2 83/3/2
f 83/3/2 82/3/2 84/3/2
f 85/7/2 86/7/2 93/7/2
f 93/7/2 86/7/2 94/7/2
f 86/8/2 87/8/2 95/8/2
f 94/7/2 86/7/2 95/7/2
f 87/7/2 88/7/2 96/7/2
f 95/8/2 87/8/2 96/8/2
f 88/4/2 89/4/2 97/4/2
f 96/7/2 88/7/2 97/7/2
f 89/7/2 90/7/2 98/7/2
f 97/4/2 89/4/2 98/4/2
f 90/8/2 91/8/2 99/8/2
f 98/7/2 90/7/2 99/7/2
f 91/6/2 92/6/2 100/6/2
f 99/8/2 91/8/2 100/8/2
f 93/5/2 94/5/2 101/5/2
f 101/5/2 94/5/2 102/5/2
f 102/5/2 94/5/2 103/5/2
f 94/6/2 95/6/2 104/6/2
f 103/5/2 94/5/2 104/5/2
f 104/6/2 95/6/2 105/6/2
f 100/6/2 92/6/2 106/6/2
f 106/6/2 92/6/2 107/6/2
f 101/2/2 102/2/2 108/2/2
f 102/3/2 103/3/2 109/3/2
f 108/2/2 102/2/2 109/2/2
f 109/3/2 103/3/2 110/3/2
f 115/5/3 113/5/3 112/5/3
f 115/2/3 114/2/3 113/2/3
f 116/2/3 114/2/3 115/2/3
f 117/2/3 114/2/3 116/2/3
f 118/2/3 114/2/3 117/2/3
f 119/2/3 114/2/3 118/2/3
f 120/5/3 115/5/3 112/5/3
f 120/6/3 116/6/3 115/6/3
f 121/7/3 117/7/3 116/7/3
f 121/6/3 116/6/3 120/6/3
f 122/8/3 118/8/3 117/8/3
f 122/7/3 117/7/3 121/7/3
f 123/9/3 119/9/3 118/9/3
f 123/8/3 118/8/3 122/8/3
f 124/2/3 114/2/3 119/2/3
f 124/9/3 119/9/3 123/9/3
f 125/7/3 112/7/3 111/7/3
f 126/5/3 120/5/3 112/5/3
f 126/7/3 112/7/3 125/7/3
f 127/2/3 123/2/3 122/2/3
f 127/5/3 120/5/3 126/5/3
f 127/2/3 122/2/3 121/2/3
f 127/2/3 124/2/3 123/2/3
f 127/2/3 121/2/3 120/2/3
f 128/2/3 114/2/3 124/2/3
f 128/2/3 124/2/3 127/2/3
f 133/8/3 130/8/3 129/8/3
f 134/1/3 131/1/3 130/1/3
f 134/8/3 130/8/3 133/8/3
f 135/8/3 132/8/3 131/8/3
f 135/1/3 131/1/3 134/1/3
f 136/8/3 132/8/3 135/8/3
f 139/6/3 138/6/3 137/6/3
f 140/6/3 138/6/3 139/6/3
f 141/2/4 142/2/4 143/2/4
f 143/2/4 142/2/4 144/2/4
f 144/2/4 142/2/4 150/2/4
f 150/2/4 142/2/4 151/2/4
f 145/6/4 146/6/4 154/6/4
f 146/7/4 147/7/4 155/7/4
f 154/6/4 146/6/4 155/6/4
f 147/8/4 148/8/4 156/8/4
f 155/7/4 147/7/4 156/7/4
f 148/9/4 149/9/4 157/9/4
f 156/8/4 148/8/4 157/8/4
f 157/9/4 149/9/4 158/9/4
f 152/2/4 153/2/4 160/2/4
f 159/2/4 160/2/4 161/2/4
f 160/2/4 153/2/4 162/2/4
f 161/2/4 160/2/4 162/2/4
f 163/3/4 164/3/4 165/3/4
f 165/3/4 164/3/4 166/3/4
f 163/3/4 165/3/4 167/3/4
f 163/3/4 167/3/4 169/3/4
f 167/3/4 168/3/4 169/3/4
f 169/3/4 168/3/4 170/3/4
f 170/3/4 168/3/4 171/3/4
f 170/3/4 171/3/4 175/3/4
f 171/3/4 172/3/4 175/3/4
f 175/3/4 172/3/4 176/3/4
f 173/3/4 174/3/4 177/3/4
f 177/3/4 174/3/4 178/3/4
f 170/3/4 175/3/4 180/3/4
f 179/3/4 180/3/4 181/3/4
f 180/3/4 175/3/4 182/3/4
f 181/3/4 180/3/4 182/3/4
f 179/3/4 181/3/4 183/3/4
f 179/3/4 183/3/4 185/3/4
f 183/3/4 184/3/4 185/3/4
f 185/3/4 184/3/4 186/3/4
f 187/8/4 188/8/4 191/8/4
f 188/1/4 189/1/4 192/1/4
f 191/8/4 188/8/4 192/8/4
f 189/8/4 190/8/4 193/8/4
f 192/1/4 189/1/4 193/1/4
f 193/8/4 190/8/4 194/8/4
f 195/6/4 196/6/4 197/6/4
f 197/6/4 196/6/4 198/6/4
f 199/6/4 200/6/4 201/6/4
f 201/6/4 200/6/4 202/6/4
f 205/7/5 204/7/5 203/7/5
f 206/7/5 204/7/5 205/7/5
f 207/8/5 206/8/5 205/8/5
f 208/8/5 206/8/5 207/8/5
f 209/7/5 208/7/5 207/7/5
f 210/7/5 208/7/5 209/7/5
f 211/7/5 208/7/5 210/7/5
f 212/7/5 208/7/5 211/7/5
f 213/7/5 208/7/5 212/7/5
f 214/7/5 208/7/5 213/7/5
f 215/7/5 208/7/5 214/7/5
f 216/7/5 208/7/5 215/7/5
f 217/7/5 208/7/5 216/7/5
f 218/7/5 208/7/5 217/7/5
f 219/7/5 208/7/5 218/7/5
f 220/7/5 208/7/5 219/7/5
f 221/7/5 208/7/5 220/7/5
f 222/7/5 208/7/5 221/7/5
f 223/4/5 210/4/5 209/4/5
f 224/7/5 211/7/5 210/7/5
f 224/4/5 210/4/5 223/4/5
f 225/4/5 212/4/5 211/4/5
f 225/7/5 211/7/5 224/7/5
f 226/7/5 213/7/5 212/7/5
f 226/4/5 212/4/5 225/4/5
f 227/4/5 214/4/5 213/4/5
f 227/7/5 213/7/5 226/7/5
f 228/7/5 215/7/5 214/7/5
f 228/4/5 214/4/5 227/4/5
f 229/4/5 216/4/5 215/4/5
f 229/7/5 215/7/5 228/7/5
f 230/7/5 217/7/5 216/7/5
f 230/4/5 216/4/5 229/4/5
f 231/4/5 218/4/5 217/4/5
f 231/7/5 217/7/5 230/7/5
f 232/7/5 219/7/5 218/7/5
f 232/4/5 218/4/5 231/4/5
f 233/4/5 220/4/5 219/4/5
f 233/7/5 219/7/5 232/7/5
f 234/7/5 221/7/5 220/7/5
f 234/4/5 220/4/5 233/4/5
f 235/4/5 222/4/5 221/4/5
f 235/7/5 221/7/5 234/7/5
f 236/4/5 222/4/5 235/4/5
f 237/7/5 224/7/5 223/7/5
f 237/7/5 225/7/5 224/7/5
f 237/7/5 236/7/5 235/7/5
f 237/7/5 235/7/5 234/7/5
f 237/7/5 234/7/5 233/7/5
f 237/7/5 233/7/5 232/7/5
f 237/7/5 232/7/5 231/7/5
f 237/7/5 231/7/5 230/7/5
f 237/7/5 230/7/5 229/7/5
f 237/7/5 229/7/5 228/7/5
f 237/7/5 228/7/5 227/7/5
f 237/7/5 227/7/5 226/7/5
f 237/7/5 226/7/5 225/7/5
f 238/7/5 236/7/5 237/7/5
f 239/8/5 238/8/5 237/8/5
f 240/8/5 238/8/5 239/8/5
f 241/6/5 240/6/5 239/6/5
f 242/6/5 240/6/5 241/6/5
f 245/3/5 244/3/5 243/3/5
f 246/3/5 244/3/5 245/3/5
f 249/8/5 248/8/5 247/8/5
f 250/8/5 248/8/5 249/8/5
f 253/8/5 252/8/5 251/8/5
f 254/8/5 252/8/5 253/8/5
f 255/8/6 256/8/6 257/8/6
f 257/8/6 256/8/6 258/8/6
f 257/7/6 258/7/6 259/7/6
f 259/7/6 258/7/6 260/7/6
f 260/7/6 258/7/6 261/7/6
f 261/7/6 258/7/6 262/7/6
f 262/7/6 258/7/6 263/7/6
f 263/7/6 258/7/6 264/7/6
f 264/7/6 258/7/6 265/7/6
f 265/7/6 258/7/6 266/7/6
f 266/7/6 258/7/6 267/7/6
f 267/7/6 258/7/6 268/7/6
f 268/7/6 258/7/6 269/7/6
f 269/7/6 258/7/6 270/7/6
f 270/7/6 258/7/6 271/7/6
f 271/7/6 258/7/6 272/7/6
f 259/4/6 260/4/6 273/4/6
f 260/7/6 261/7/6 274/7/6
f 273/4/6 260/4/6 274/4/6
f 261/4/6 262/4/6 275/4/6
f 274/7/6 261/7/6 275/7/6
f 262/7/6 263/7/6 276/7/6
f 275/4/6 262/4/6 276/4/6
f 263/4/6 264/4/6 277/4/6
f 276/7/6 263/7/6 277/7/6
f 264/7/6 265/7/6 278/7/6
f 277/4/6 264/4/6 278/4/6
f 265/4/6 266/4/6 279/4/6
f 278/7/6 265/7/6 279/7/6
f 266/7/6 267/7/6 280/7/6
f 279/4/6 266/4/6 280/4/6
f 267/4/6 268/4/6 281/4/6
f 280/7/6 267/7/6 281/7/6
f 268/7/6 269/7/6 282/7/6
f 281/4/6 268/4/6 282/4/6
f 269/4/6 270/4/6 283/4/6
f 282/7/6 269/7/6 283/7/6
f 270/7/6 271/7/6 284/7/6
f 283/4/6 270/4/6 284/4/6
f 271/4/6 272/4/6 285/4/6
f 284/7/6 271/7/6 285/7/6
f 285/4/6 272/4/6 286/4/6
f 273/7/6 274/7/6 287/7/6
f 274/7/6 275/7/6 287/7/6
f 285/7/6 286/7/6 287/7/6
f 284/7/6 285/7/6 287/7/6
f 283/7/6 284/7/6 287/7/6
f 282/7/6 283/7/6 287/7/6
f 281/7/6 282/7/6 287/7/6
f 280/7/6 281/7/6 287/7/6
f 279/7/6 280/7/6 287/7/6
f 278/7/6 279/7/6 287/7/6
f 277/7/6 278/7/6 287/7/6
f 276/7/6 277/7/6 287/7/6
f 275/7/6 276/7/6 287/7/6
f 287/7/6 286/7/6 288/7/6
f 287/8/6 288/8/6 289/8/6
f 289/8/6 288/8/6 290/8/6
f 291/5/6 292/5/6 294/5/6
f 294/5/6 292/5/6 295/5/6
f 293/5/6 294/5/6 297/5/6
f 295/5/6 296/5/6 297/5/6
f 294/5/6 295/5/6 297/5/6
f 297/5/6 296/5/6 298/5/6
f 297/6/6 298/6/6 299/6/6
f 299/6/6 298/6/6 300/6/6
f 301/6/6 302/6/6 303/6/6
f 303/6/6 302/6/6 304/6/6
f 305/3/6 306/3/6 309/3/6
f 309/3/6 306/3/6 310/3/6
f 307/3/6 308/3/6 311/3/6
f 311/3/6 308/3/6 312/3/6
f 313/3/6 314/3/6 317/3/6
f 317/3/6 314/3/6 318/3/6
f 315/3/6 316/3/6 319/3/6
f 319/3/6 316/3/6 320/3/6
f 321/8/6 322/8/6 323/8/6
f 323/8/6 322/8/6 324/8/6
f 325/2/6 326/2/6 327/2/6
f 327/2/6 326/2/6 328/2/6
f 328/2/6 326/2/6 329/2/6
f 329/2/6 326/2/6 330/2/6
f 330/2/6 326/2/6 331/2/6
f 331/2/6 326/2/6 332/2/6
f 327/3/6 328/3/6 333/3/6
f 333/3/6 328/3/6 334/3/6
f 329/3/6 330/3/6 335/3/6
f 335/3/6 330/3/6 336/3/6
f 331/3/6 332/3/6 337/3/6
f 337/3/6 332/3/6 338/3/6
